<svg width="400" height="295" viewBox="0 0 400 295" fill="none" xmlns="http://www.w3.org/2000/svg">
<path d="M222.333 6.3334C217.067 10.2001 202.4 26.2001 199.933 30.7334C199.133 32.2667 194.8 38.0667 190.2 43.7334C185.667 49.4001 178.667 58.9334 174.733 65.0001C170.733 71.0667 167 76.0001 166.4 76.0001C165.867 76.0001 163.867 78.9334 162.067 82.6001C160.2 86.2001 158.067 89.5334 157.333 90.0001C156.6 90.4667 155.067 92.7334 154 95.0667C149.333 105.067 142.733 113.667 125.333 132.067C112.867 145.267 100.4 160.533 99.3334 163.933C97.8001 168.867 94.4001 167.267 95.4001 162.133C98.4001 146.267 73.4667 149.333 67.6667 165.533C65.6001 171.267 65.3334 163.667 67.1334 153.533C69.8667 138.667 69.9334 131.467 67.3334 129.333C64.5334 127 60.8 128.733 62.0667 131.667C62.6667 132.933 63.0667 135.2 63.0667 136.667C63 138.133 62.8667 145.467 62.7334 153C62.6 160.467 61.9334 167 61.2667 167.4C60.5334 167.8 60 169.6 60 171.4C60 173.133 58.6 177.733 56.8667 181.6C44.5334 208.933 42.2667 214.867 41.0667 222C40.3334 226.4 39.2 231.2 38.6667 232.667C34.3334 243.267 30.2 277.333 33.2 277.333C34 277.333 34.6667 274.933 34.6667 272C34.6667 269 36.2 260.2 38.0667 252.333C39.9334 244.467 42.0667 235.267 42.8 232C46.2667 216.867 47.5334 212.867 51.8 204.2C53.4 201 54.6667 197.6 54.6667 196.6C54.6667 195.6 55.2667 194.467 55.9334 194C56.7334 193.533 57 197.6 56.5334 204.933C56.1334 211.4 55.3334 227.133 54.7334 240C53.6667 263.533 52.5334 271.4 49.4667 277.133C48.2 279.4 48.1334 280.667 49.2 281.733C51.2667 283.8 54.5334 279.133 54.7334 274C54.8 271.8 55.2 268.8 55.6 267.333C56 265.867 56.6 253.867 56.9334 240.667C57.2667 227.467 58.0667 216.067 58.6667 215.333C60.2 213.533 60.8667 193.333 59.4667 190C58.7334 188.133 58.8 187.867 59.7334 189.133C61.3334 191.4 62.0667 190.133 63.2667 183.333C64.8 174.333 81.1334 154.667 87.0667 154.667C91.4667 154.667 89.8001 174.4 84.6667 184.133C83.3334 186.6 80.8001 191.533 79.0667 195C77.3334 198.467 75.3334 201.333 74.6001 201.333C72.8001 201.333 73.0001 206.333 74.8667 207.467C77.1334 208.867 84.9334 198.8 86.8001 192C87.7334 188.667 90.1334 183.467 92.2001 180.4C94.3334 177.333 96.0001 174.533 96.0001 174.133C96.0001 173.8 97.5334 171.867 99.3334 169.867C101.2 167.867 102.667 165.8 102.667 165.267C102.667 164.667 104.333 162.533 106.333 160.4C108.333 158.333 114.733 151 120.6 144.067C130 132.867 136.867 128.8 129.467 138.8C126.333 143 116 162.533 116 164.2C116 164.733 114.467 167.467 112.6 170.267C110.667 173.067 108.8 176.933 108.4 178.933C108 180.933 106.533 183.533 105.2 184.8C101.8 187.867 101.867 192 105.333 192C106.8 192 108 191.4 108 190.6C108 188.867 114.4 181.6 125.267 171.067C136.333 160.333 139.133 160.067 144.667 169.467C150.733 179.733 153.267 182.667 156 182.667C157.333 182.667 158.667 183.4 159 184.267C159.8 186.667 164 184.4 164 181.533C164 180.133 164.867 178.267 165.933 177.4C167 176.467 170.267 171.4 173.267 166C176.2 160.667 179.4 155.467 180.4 154.467C181.333 153.467 183.333 150.467 184.733 147.8C192.733 132.6 194.867 129.467 197.467 128.6C203.533 126.733 204.067 146.667 198.533 166.667C197.133 171.733 203.4 168.467 206.333 162.667C207.933 159.333 210.467 155.267 212 153.533C213.467 151.867 214.667 149.867 214.667 149.133C214.667 148.4 216.267 145.733 218.2 143.2C222.2 137.933 223.8 135.2 231.733 119.8C234.933 113.667 238.067 108.067 238.733 107.4C240.533 105.6 240.267 102.667 238.333 102.667C236.533 102.667 230.267 111.533 224.667 122.2C222.733 125.733 220.133 129.8 218.8 131.333C217.533 132.8 215.667 135.933 214.733 138.267C213.867 140.6 211.933 143.533 210.533 144.8C209.133 146.067 208 147.867 208 148.867C208 149.867 207.4 150.667 206.667 150.667C205.733 150.667 205.6 147 206.133 140.067C207.333 125.867 201.933 117.533 196.067 124.6C195.2 125.667 192.867 126.667 190.933 126.933C188.2 127.2 186.6 128.733 184.4 133.133C182.8 136.4 180.667 140 179.667 141.133C178.667 142.333 175.4 148.4 172.333 154.667C162.267 175.333 155.333 180.667 151.133 171C149.933 168.267 148.333 164.667 147.6 163C143.6 154.333 133.2 156.4 121.467 168.2C114.2 175.6 113.933 174.533 120.267 163.333C122.267 159.8 135.667 134.133 139.067 127.4C142.867 119.733 149.6 111.267 168 91.2001C170.733 88.2667 174.6 83.2667 176.533 80.2001C178.467 77.2001 180.533 74.6667 181.133 74.6667C181.733 74.6667 185.4 70.6001 189.4 65.6667C193.333 60.7334 198.6 54.2667 201.067 51.3334C203.533 48.4001 207.733 43.4001 210.467 40.2001C213.133 37.0001 216.867 32.6667 218.667 30.6667C220.533 28.6001 222.6 26.0667 223.333 25.0001C224.067 23.9334 227.533 19.5334 231 15.2001C234.533 10.8667 237.2 6.40007 237 5.3334C236.333 1.66673 227.933 2.26673 222.333 6.3334ZM230.667 8.7334C230.667 9.5334 225.867 15.0001 219.667 21.3334C217.667 23.4001 216 25.5334 216 26.0667C216 26.6001 214.067 29.2001 211.667 31.8667C209.267 34.6001 205.867 38.8001 204 41.3334C202.2 43.8667 198.867 47.8667 196.667 50.2667C194.467 52.6667 190.6 57.3334 188 60.7334C185.467 64.0667 181.467 68.7334 179.133 71.0667C176.867 73.4001 173.467 77.7334 171.667 80.6667C168.133 86.4001 164.4 90.1334 163.267 89.0001C162.867 88.6667 164.067 86.5334 165.933 84.3334C167.8 82.0667 169.333 79.8001 169.333 79.1334C169.333 78.5334 170.6 76.4667 172.067 74.6667C173.533 72.8001 177.867 66.9334 181.733 61.6001C189.733 50.4001 192.867 46.2001 201.733 34.6667C205.267 30.1334 208.533 25.5334 208.933 24.5334C209.267 23.5334 210.467 22.6667 211.467 22.6667C212.467 22.6667 213.333 22.0667 213.333 21.2667C213.333 18.8667 225.467 8.00007 228.133 8.00007C229.533 8.00007 230.667 8.3334 230.667 8.7334Z" fill="white"/>
<path d="M342.667 35.5334C342.667 39 340.8 42.6667 332.467 55.5334C330 59.3334 328 63 328 63.7334C328 64.4 327.133 65.7334 326.133 66.5334C325.067 67.4 321.133 73.5334 317.267 80.0667C313.467 86.6667 309.8 92.4 309.133 92.8C308.533 93.2 308 94.6 308 95.9334C308 98.9334 302.6 109.333 301.067 109.333C300.467 109.333 300 110 300 110.8C300 111.6 298.733 114.067 297.133 116.267C291.267 124.467 297.6 123.867 309.067 115.133C312.4 112.6 318.067 108.867 321.733 106.933C325.4 104.933 330.2 102.333 332.533 101.067C334.8 99.8667 338.8 97 341.333 94.7334C343.933 92.5334 346.667 90.6667 347.467 90.6667C348.267 90.6667 351.6 88.6 354.8 86C358 83.4667 361.2 81.3334 361.933 81.3334C362.6 81.3334 364.4 80.2 365.933 78.8667C368.333 76.6667 377.4 71.3334 388.333 65.6667C390.333 64.6667 392 63 392 62.0667C392 59.4667 385.733 61.1334 378.8 65.5334C375.533 67.6 371.8 69.3334 370.533 69.3334C369.333 69.3334 367.933 70.2 367.533 71.3334C367.067 72.4 366.067 73.3334 365.333 73.3334C364.533 73.3334 360.333 75.7334 356 78.6667C351.667 81.6 347.667 84 347.067 84.0667C346.467 84.0667 343.933 85.8667 341.4 88.0667C338.867 90.2 336.267 92 335.6 92C334.933 92 332.533 93.3334 330.2 95C324 99.4667 307.467 109.267 307 108.733C306.4 108.2 314.533 93.2667 317.2 90C318.4 88.5334 320.467 85.2 321.867 82.6667C323.267 80.0667 325.333 76.8 326.533 75.3334C333.333 66.9334 348 42.3334 348.267 38.8C348.667 33.7334 347.867 32 345.333 32C343.333 32 342.667 32.8667 342.667 35.5334Z" fill="white"/>
<path d="M265.067 124.133C263.8 127.8 263.2 128.2 259.733 127.467C255.533 126.667 247.267 130.067 243.933 134.067C242.933 135.267 240.667 136.8 238.933 137.467C235.2 138.933 235.667 141.8 239.8 142.4C241.733 142.733 245.067 140.933 249.4 137.267C254.933 132.6 256.733 131.8 260 132.467C264.133 133.267 273.333 125.933 273.333 121.8C273.333 117.867 266.6 119.8 265.067 124.133Z" fill="white"/>
</svg>
